<svg aria-hidden="true" style="position: absolute; width: 0; height: 0; overflow: hidden;" version="1.1" xmlns="http://www.w3.org/2000/svg" xmlns:xlink="http://www.w3.org/1999/xlink">
<defs>
<symbol id="icon-menu" viewBox="0 0 64 64">
<path d="M8 34.667h48c1.472 0 2.667-1.195 2.667-2.667s-1.195-2.667-2.667-2.667h-48c-1.472 0-2.667 1.195-2.667 2.667s1.195 2.667 2.667 2.667zM8 18.667h48c1.472 0 2.667-1.195 2.667-2.667s-1.195-2.667-2.667-2.667h-48c-1.472 0-2.667 1.195-2.667 2.667s1.195 2.667 2.667 2.667zM8 50.667h48c1.472 0 2.667-1.195 2.667-2.667s-1.195-2.667-2.667-2.667h-48c-1.472 0-2.667 1.195-2.667 2.667s1.195 2.667 2.667 2.667z"></path>
</symbol>
<symbol id="icon-x" viewBox="0 0 64 64">
<path d="M14.115 17.885l14.115 14.115-14.115 14.115c-1.043 1.043-1.043 2.731 0 3.771s2.731 1.043 3.771 0l14.115-14.115 14.115 14.115c1.043 1.043 2.731 1.043 3.771 0s1.043-2.731 0-3.771l-14.115-14.115 14.115-14.115c1.043-1.043 1.043-2.731 0-3.771s-2.731-1.043-3.771 0l-14.115 14.115-14.115-14.115c-1.043-1.043-2.731-1.043-3.771 0s-1.043 2.731 0 3.771z"></path>
</symbol>
</defs>
</svg>
